<svg xmlns="http://www.w3.org/2000/svg" width="32" height="32" id="money"><path d="M14.494.998a.5.5 0 0 0-.348.86L15.35 3.06C8.48 3.402 3 9.073 3 16.027a12.914 12.914 0 0 0 2.22 7.27 13.05 13.05 0 0 0 3.51 3.51c.692.467 1.432.87 2.21 1.199a.5.5 0 1 0 .39-.92 11.983 11.983 0 0 1-3.814-2.572A11.958 11.958 0 0 1 4 16.028C4 9.652 8.96 4.46 15.232 4.063L14.146 5.15a.5.5 0 1 0 .708.707l2-2a.5.5 0 0 0 0-.709l-2-1.998a.5.5 0 0 0-.36-.152zm6.322 3.01a.5.5 0 0 0-.146.963 11.98 11.98 0 0 1 3.814 2.572A11.973 11.973 0 0 1 28 16.027c0 6.392-4.987 11.592-11.285 11.963l1.139-1.138a.5.5 0 0 0-.364-.858.5.5 0 0 0-.344.15l-2 2a.5.5 0 0 0 0 .708l2 2a.5.5 0 1 0 .708-.707L16.7 28.992C23.548 28.625 29 22.964 29 16.027a12.914 12.914 0 0 0-2.22-7.268 13.05 13.05 0 0 0-5.72-4.71.5.5 0 0 0-.193-.041.5.5 0 0 0-.05 0zM16 8.028c-4.412 0-8 3.587-8 8 0 4.412 3.588 8 8 8s8-3.588 8-8c0-4.413-3.588-8-8-8zm0 1c3.872 0 7 3.127 7 7 0 3.871-3.128 7-7 7s-7-3.129-7-7c0-3.873 3.128-7 7-7zM15.646 11v1.158c-.314.039-.599.114-.853.227-.254.112-.47.256-.65.431a1.858 1.858 0 0 0-.41.621 2.166 2.166 0 0 0-.14.79c0 .312.055.587.16.826.112.238.268.448.472.63.208.183.458.342.75.48.295.132.628.25.998.353.277.09.513.187.707.285.198.098.358.204.478.32.125.116.214.24.27.373.055.133.084.28.084.438 0 .19-.034.36-.104.515-.07.151-.172.28-.306.389-.13.105-.29.188-.485.248a2.295 2.295 0 0 1-1.18.016 1.255 1.255 0 0 1-.478-.243 1.237 1.237 0 0 1-.346-.468c-.088-.197-.13-.444-.13-.743h-1.221c0 .397.062.738.187 1.022.125.28.29.515.498.701.213.186.456.328.729.426.273.098.554.164.845.195V21h.965v-1.01c.347-.035.659-.105.936-.21.277-.106.513-.247.707-.423.194-.175.345-.382.451-.62.106-.243.158-.513.158-.815 0-.309-.05-.581-.152-.817a1.782 1.782 0 0 0-.451-.62 2.878 2.878 0 0 0-.735-.47 6.755 6.755 0 0 0-1.005-.369 5.831 5.831 0 0 1-.749-.289 2.283 2.283 0 0 1-.486-.32 1.03 1.03 0 0 1-.27-.369 1.558 1.558 0 0 1 0-.957c.056-.15.136-.28.243-.385a1.14 1.14 0 0 1 .41-.252c.162-.06.352-.09.574-.09.213 0 .402.04.569.121.166.081.305.193.416.336.11.144.194.316.25.512.06.197.09.411.09.647h1.214c0-.713-.179-1.273-.535-1.684-.351-.414-.849-.664-1.496-.752V11h-.979z" color="#000" font-family="sans-serif" font-weight="400" overflow="visible" style="line-height:normal;text-indent:0;text-align:start;text-decoration-line:none;text-decoration-style:solid;text-decoration-color:#000;text-transform:none;block-progression:tb;white-space:normal;isolation:auto;mix-blend-mode:normal;solid-color:#000;solid-opacity:1"></path></svg>